<svg xmlns="http://www.w3.org/2000/svg"  viewBox="0 0 32 32" width="32px" height="32px"><path d="M 5 5 L 5 27 L 27 27 L 27 15 L 25 15 L 25 25 L 7 25 L 7 7 L 17 7 L 17 5 L 5 5 z M 21 5 L 21 7 L 25 7 L 25 5 L 21 5 z M 25 7 L 25 11 L 27 11 L 27 7 L 25 7 z M 25 11 L 23 11 L 23 13 L 25 13 L 25 11 z M 23 13 L 21 13 L 21 15 L 23 15 L 23 13 z M 21 15 L 19 15 L 19 17 L 21 17 L 21 15 z M 19 17 L 17 17 L 17 19 L 19 19 L 19 17 z M 17 19 L 15 19 L 15 17 L 13 17 L 13 15 L 11 15 L 11 19 L 11 21 L 13 21 L 17 21 L 17 19 z M 13 15 L 15 15 L 15 13 L 13 13 L 13 15 z M 15 13 L 17 13 L 17 11 L 15 11 L 15 13 z M 17 11 L 19 11 L 19 9 L 17 9 L 17 11 z M 19 9 L 21 9 L 21 7 L 19 7 L 19 9 z M 21 9 L 21 11 L 23 11 L 23 9 L 21 9 z"/></svg>