<svg xmlns="http://www.w3.org/2000/svg"  viewBox="0 0 32 32" width="32px" height="32px"><path d="M 14 2 L 14 4 L 24 4 L 24 13 L 26 13 L 26 2 L 14 2 z M 24 13 L 22 13 L 22 15 L 24 15 L 24 13 z M 22 15 L 19 15 L 19 17 L 22 17 L 22 15 z M 19 15 L 19 12 L 17 12 L 17 15 L 19 15 z M 19 12 L 21 12 L 21 8 L 20 8 L 19 8 L 12 8 L 12 6 L 10 6 L 10 8 L 7 8 L 7 23 L 5 23 L 5 27 L 7 27 L 9 27 L 23 27 L 25 27 L 27 27 L 27 23 L 25 23 L 25 17 L 23 17 L 23 23 L 23 25 L 9 25 L 9 23 L 9 10 L 19 10 L 19 12 z M 12 6 L 14 6 L 14 4 L 12 4 L 12 6 z"/></svg>