<svg xmlns="http://www.w3.org/2000/svg"  viewBox="0 0 32 32" width="32px" height="32px"><path d="M 8 5 L 8 7 L 14 7 L 14 5 L 8 5 z M 18 5 L 18 7 L 24 7 L 24 5 L 18 5 z M 8 9 L 8 11 L 6 11 L 6 13 L 12 13 L 12 21 L 4 21 L 4 17 L 2 17 L 2 25 L 2 26 L 2 27 L 14 27 L 14 26 L 14 25 L 14 21 L 18 21 L 18 25 L 18 26 L 18 27 L 30 27 L 30 26 L 30 25 L 30 17 L 28 17 L 28 21 L 20 21 L 20 13 L 26 13 L 26 11 L 24 11 L 24 9 L 22 9 L 22 11 L 20 11 L 20 9 L 18 9 L 18 13 L 14 13 L 14 9 L 12 9 L 12 11 L 10 11 L 10 9 L 8 9 z M 26 13 L 26 17 L 28 17 L 28 13 L 26 13 z M 4 17 L 6 17 L 6 13 L 4 13 L 4 17 z M 14 15 L 18 15 L 18 19 L 14 19 L 14 15 z M 4 23 L 12 23 L 12 25 L 4 25 L 4 23 z M 20 23 L 28 23 L 28 25 L 20 25 L 20 23 z"/></svg>