<svg xmlns="http://www.w3.org/2000/svg"  viewBox="0 0 32 32" width="32px" height="32px"><path d="M 6 9 L 6 11 L 30 11 L 30 21 L 6 21 L 6 23 L 32 23 L 32 9 L 6 9 z M 6 21 L 6 19 L 4 19 L 4 21 L 6 21 z M 4 19 L 4 17 L 2 17 L 2 19 L 4 19 z M 2 17 L 2 15 L 0 15 L 0 17 L 2 17 z M 2 15 L 4 15 L 4 13 L 2 13 L 2 15 z M 4 13 L 6 13 L 6 11 L 4 11 L 4 13 z M 8 13 L 8 15 L 10 15 L 10 13 L 8 13 z M 10 15 L 10 17 L 12 17 L 12 15 L 10 15 z M 10 17 L 8 17 L 8 19 L 10 19 L 10 17 z M 8 17 L 8 15 L 6 15 L 6 17 L 8 17 z M 16 13 L 16 15 L 18 15 L 18 13 L 16 13 z M 18 15 L 18 17 L 20 17 L 20 15 L 18 15 z M 18 17 L 16 17 L 16 19 L 18 19 L 18 17 z M 16 17 L 16 15 L 14 15 L 14 17 L 16 17 z M 24 13 L 24 15 L 26 15 L 26 13 L 24 13 z M 26 15 L 26 17 L 28 17 L 28 15 L 26 15 z M 26 17 L 24 17 L 24 19 L 26 19 L 26 17 z M 24 17 L 24 15 L 22 15 L 22 17 L 24 17 z"/></svg>