<svg xmlns="http://www.w3.org/2000/svg"  viewBox="0 0 32 32" width="32px" height="32px"><path d="M 13 3 L 13 5 L 19 5 L 19 3 L 13 3 z M 19 5 L 19 7 L 22 7 L 22 5 L 19 5 z M 22 7 L 22 15 L 24 15 L 24 7 L 22 7 z M 22 15 L 19 15 L 19 17 L 22 17 L 22 15 z M 19 17 L 17 17 L 17 20 L 19 20 L 19 17 z M 17 20 L 15 20 L 15 23 L 17 23 L 17 20 z M 15 20 L 15 17 L 13 17 L 13 20 L 15 20 z M 13 17 L 13 15 L 10 15 L 10 17 L 13 17 z M 10 15 L 10 7 L 8 7 L 8 15 L 10 15 z M 10 7 L 13 7 L 13 5 L 10 5 L 10 7 z M 14 9 L 14 13 L 18 13 L 18 9 L 14 9 z M 4 18 L 4 27 L 28 27 L 28 18 L 23 18 L 23 20 L 26 20 L 26 25 L 6 25 L 6 20 L 9 20 L 9 18 L 4 18 z"/></svg>