<svg xmlns="http://www.w3.org/2000/svg"  viewBox="0 0 32 32" width="32px" height="32px"><path d="M 27 3 L 27 5 L 29 5 L 29 3 L 27 3 z M 27 5 L 25 5 L 25 7 L 27 7 L 27 5 z M 25 7 L 23 7 L 23 10 L 25 10 L 25 7 z M 23 10 L 17 10 L 17 12 L 23 12 L 23 10 z M 17 10 L 17 8 L 13 8 L 13 10 L 17 10 z M 13 8 L 13 6 L 10 6 L 10 8 L 13 8 z M 10 8 L 7 8 L 7 10 L 10 10 L 10 8 z M 7 10 L 5 10 L 5 13 L 7 13 L 7 10 z M 5 13 L 3 13 L 3 17 L 5 17 L 5 13 z M 9 12 L 9 13 L 9 27 L 15 27 L 15 12 L 9 12 z M 25 12 L 25 13 L 25 27 L 31 27 L 31 12 L 25 12 z M 11 14 L 13 14 L 13 25 L 11 25 L 11 14 z M 27 14 L 29 14 L 29 25 L 27 25 L 27 14 z M 17 15 L 17 16 L 17 27 L 23 27 L 23 15 L 17 15 z M 19 17 L 21 17 L 21 25 L 19 25 L 19 17 z M 1 19 L 1 20 L 1 27 L 7 27 L 7 19 L 1 19 z M 3 21 L 5 21 L 5 25 L 3 25 L 3 21 z"/></svg>