<svg xmlns="http://www.w3.org/2000/svg"  viewBox="0 0 32 32" width="32px" height="32px"><path d="M 12 3 L 12 5 L 20 5 L 20 3 L 12 3 z M 20 5 L 20 7 L 25 7 L 25 20 L 27 20 L 27 5 L 20 5 z M 25 20 L 23 20 L 23 24 L 25 24 L 25 20 z M 23 24 L 20 24 L 20 26 L 23 26 L 23 24 z M 20 26 L 17 26 L 17 28 L 20 28 L 20 26 z M 17 28 L 15 28 L 15 30 L 17 30 L 17 28 z M 15 28 L 15 26 L 12 26 L 12 28 L 15 28 z M 12 26 L 12 24 L 9 24 L 9 26 L 12 26 z M 9 24 L 9 20 L 7 20 L 7 24 L 9 24 z M 7 20 L 7 7 L 12 7 L 12 5 L 5 5 L 5 20 L 7 20 z"/></svg>