<svg xmlns="http://www.w3.org/2000/svg"  viewBox="0 0 32 32" width="32px" height="32px"><path d="M 11 5 L 11 7 L 21 7 L 21 5 L 11 5 z M 21 7 L 21 9 L 23 9 L 23 7 L 21 7 z M 23 9 L 23 11 L 25 11 L 25 9 L 23 9 z M 25 11 L 25 21 L 27 21 L 27 11 L 25 11 z M 25 21 L 23 21 L 23 23 L 25 23 L 25 21 z M 23 23 L 9 23 L 9 25 L 23 25 L 23 23 z M 9 23 L 9 21 L 7 21 L 7 23 L 9 23 z M 7 21 L 7 11 L 5 11 L 5 21 L 7 21 z M 7 11 L 9 11 L 9 9 L 7 9 L 7 11 z M 9 9 L 11 9 L 11 7 L 9 7 L 9 9 z M 27 5 L 27 7 L 29 7 L 29 5 L 27 5 z M 17 11 L 17 13 L 15 13 L 15 15 L 17 15 L 17 17 L 19 17 L 19 15 L 21 15 L 21 13 L 19 13 L 19 11 L 17 11 z M 10 17 L 10 19 L 12 19 L 12 17 L 10 17 z M 7 27 L 7 29 L 25 29 L 25 27 L 7 27 z"/></svg>