<svg xmlns="http://www.w3.org/2000/svg"  viewBox="0 0 32 32" width="32px" height="32px"><path d="M 10 4 L 10 6 L 22 6 L 22 4 L 10 4 z M 22 6 L 22 8 L 24 8 L 24 6 L 22 6 z M 24 8 L 24 10 L 26 10 L 26 8 L 24 8 z M 26 10 L 26 22 L 28 22 L 28 10 L 26 10 z M 26 22 L 24 22 L 24 24 L 26 24 L 26 22 z M 24 24 L 22 24 L 22 26 L 24 26 L 24 24 z M 22 26 L 10 26 L 10 28 L 22 28 L 22 26 z M 10 26 L 10 24 L 8 24 L 8 26 L 10 26 z M 8 24 L 8 22 L 6 22 L 6 24 L 8 24 z M 6 22 L 6 10 L 4 10 L 4 22 L 6 22 z M 6 10 L 8 10 L 8 8 L 6 8 L 6 10 z M 8 8 L 10 8 L 10 6 L 8 6 L 8 8 z M 15 8 L 15 10 L 13 10 L 13 12 L 19 12 L 19 10 L 17 10 L 17 8 L 15 8 z M 19 12 L 19 14 L 21 14 L 21 12 L 19 12 z M 13 12 L 11 12 L 11 15 L 13 15 L 13 12 z M 13 15 L 13 17 L 19 17 L 19 15 L 13 15 z M 19 17 L 19 20 L 21 20 L 21 17 L 19 17 z M 19 20 L 13 20 L 13 22 L 15 22 L 15 24 L 17 24 L 17 22 L 19 22 L 19 20 z M 13 20 L 13 18 L 11 18 L 11 20 L 13 20 z"/></svg>