<svg xmlns="http://www.w3.org/2000/svg"  viewBox="0 0 32 32" width="32px" height="32px"><path d="M 2 4 L 2 16 L 4 16 L 4 29 L 28 29 L 28 16 L 30 16 L 30 4 L 2 4 z M 4 6 L 28 6 L 28 14 L 26 14 L 21 14 L 21 16 L 26 16 L 26 27 L 14 27 L 14 20 L 8 20 L 8 27 L 6 27 L 6 16 L 11 16 L 11 14 L 6 14 L 4 14 L 4 6 z M 11 14 L 13 14 L 13 12 L 11 12 L 11 14 z M 13 12 L 15 12 L 15 10 L 13 10 L 13 12 z M 15 10 L 17 10 L 17 8 L 15 8 L 15 10 z M 17 10 L 17 12 L 19 12 L 19 10 L 17 10 z M 19 12 L 19 14 L 21 14 L 21 12 L 19 12 z M 18 18 L 18 24 L 22 24 L 22 18 L 18 18 z"/></svg>