<svg xmlns="http://www.w3.org/2000/svg"  viewBox="0 0 32 32" width="32px" height="32px"><path d="M 15 3 L 15 5 L 13 5 L 13 7 L 15 7 L 15 25 L 13 25 L 13 27 L 15 27 L 15 29 L 17 29 L 17 3 L 15 3 z M 13 25 L 13 23 L 11 23 L 11 25 L 13 25 z M 11 23 L 11 21 L 9 21 L 9 23 L 11 23 z M 9 21 L 9 19 L 5 19 L 5 13 L 9 13 L 9 11 L 3 11 L 3 21 L 9 21 z M 9 11 L 11 11 L 11 9 L 9 9 L 9 11 z M 11 9 L 13 9 L 13 7 L 11 7 L 11 9 z M 22 8 L 22 11 L 24 11 L 24 8 L 22 8 z M 24 11 L 24 21 L 26 21 L 26 11 L 24 11 z M 24 21 L 22 21 L 22 24 L 24 24 L 24 21 z M 20 13 L 20 19 L 22 19 L 22 13 L 20 13 z"/></svg>